<svg width="45" height="44" viewBox="0 0 45 44" fill="none" xmlns="http://www.w3.org/2000/svg">
<rect x="0.5" width="44" height="44" rx="22" fill="white"/>
<path d="M24.7764 19.0682L18.4053 26.1365H23.8684L30.2395 19.0682L23.8684 12H18.4053L24.7764 19.0682Z" fill="#1A2530"/>
<path d="M16.4757 17.5563L13.5989 16.6068L15.4025 19.1086L13.6287 21.5953L16.4757 20.6458L18.2048 23.1476V20.058L21.1114 19.1086L18.2048 18.1441V15.0696L16.4757 17.5563ZM9.3081 29.0996C9.56021 29.0996 9.80796 29.2218 9.97312 29.4269L10.034 29.5011L10.812 28.9643L10.7424 28.8771C10.3991 28.445 9.87315 28.1963 9.3081 28.1963C8.31277 28.1963 7.5 28.9775 7.5 29.9331C7.5 30.8887 8.31277 31.6699 9.3081 31.6699C9.86879 31.6699 10.3904 31.4255 10.7337 31.0022L10.8033 30.9149L10.0253 30.3782L9.96443 30.4524C9.79492 30.6575 9.55585 30.7753 9.30378 30.7753C8.84305 30.7753 8.45187 30.3913 8.45187 29.9375C8.45623 29.4836 8.84741 29.0996 9.30814 29.0996H9.3081ZM17.6633 30.1266L16.2651 28.2771H15.376V31.5487H16.2392V29.7166L17.5425 31.5487H18.5265V28.2771H17.6633V30.1266ZM20.9999 30.6065C20.9999 30.6326 20.9651 30.637 20.9477 30.637C20.9346 30.637 20.9085 30.6326 20.8955 30.6021L20.1733 28.2771H19.1727L20.2386 31.5487H21.6611L22.727 28.2771H21.7264L20.9999 30.6065ZM29.0791 30.2095C29.4279 30.0089 29.6284 29.6424 29.5979 29.2411C29.5587 28.6959 29.0834 28.2771 28.5167 28.2771H26.8468V31.5487H27.7188V30.3709H28.1112C28.1504 30.3709 28.1853 30.3753 28.2115 30.4102L28.7739 31.5487H29.7549L29.0791 30.2095ZM28.4705 29.5292H27.695V29.1657H28.4705C28.5762 29.1657 28.6643 29.2384 28.6643 29.3474C28.6643 29.4565 28.5762 29.5292 28.4705 29.5292ZM33.915 31.5487H36.5V30.6763H34.7767V30.2837H36.3277V29.4985H34.7767V29.1495H36.5V28.2771H33.915V31.5487ZM31.9232 29.5206C31.4597 29.4164 31.3254 29.347 31.3254 29.195V29.1863C31.3254 29.0647 31.4164 28.9692 31.6416 28.9692C31.9405 28.9692 32.1831 29.0647 32.508 29.2601L33.0278 28.6436C32.6639 28.3526 32.2264 28.1963 31.6589 28.1963C30.8532 28.1963 30.3724 28.6479 30.3724 29.2731V29.2818C30.3724 29.9722 30.9399 30.1762 31.6546 30.3369C32.1094 30.4411 32.235 30.5192 32.235 30.6582V30.6669C32.235 30.8102 32.0748 30.897 31.8235 30.897C31.4337 30.897 31.0525 30.7581 30.7233 30.4932L30.1992 31.1141C30.6107 31.4831 31.2084 31.6699 31.8019 31.6699C32.6162 31.6699 33.188 31.2617 33.188 30.5757V30.567C33.188 29.9375 32.6942 29.6899 31.9232 29.5206ZM12.9325 28.1963C11.9631 28.1963 11.1755 28.9775 11.1755 29.9331C11.1755 30.8931 11.9631 31.6699 12.9325 31.6699C13.9018 31.6699 14.6894 30.8887 14.6894 29.9331C14.6894 28.9731 13.9018 28.1963 12.9325 28.1963ZM12.9325 30.7813C12.4749 30.7813 12.1045 30.4109 12.1045 29.9533C12.1045 29.4957 12.4749 29.1253 12.9325 29.1253C13.39 29.1253 13.7604 29.4957 13.7604 29.9533C13.7604 30.4109 13.39 30.7813 12.9325 30.7813ZM23.3733 31.5487H25.9582V30.6763H24.2349V30.2837H25.7859V29.4985H24.2349V29.1495H25.9582V28.2771H23.3733V31.5487Z" fill="#1A2530"/>
</svg>
