<svg width="26" height="14" viewBox="0 0 26 14" fill="none" xmlns="http://www.w3.org/2000/svg">
<path d="M7.7337 7.33311L10.2164 0.353027H8.57529L7.43914 3.38212L7.69162 0.353027H5.96635L3.48364 7.33311H5.08267L6.30298 3.95282L6.09258 7.24531L7.7337 7.33311ZM9.66937 7.33311L12.1521 0.353027H10.5951L8.07033 7.33311H9.66937ZM14.1719 6.89411L14.0877 3.38212L16.4442 0.528627L14.1719 6.89411ZM25.6176 4.43572L17.6224 6.58681L17.8328 5.92831H16.1497L16.6967 4.26012H18.1274L18.5482 2.98702L17.1175 3.07482L17.6224 1.67002H19.0111L19.474 0.396927H14.9714L13.3303 2.41632L14.1298 0.353027H12.5308L10.0481 7.33311H11.6892L12.7412 4.34792V7.33311H14.8452L7.3129 9.3964C6.5274 9.63052 5.82605 9.73299 5.20891 9.7037C4.59172 9.67442 4.11483 9.49882 3.7782 9.17691C3.02076 8.59159 2.75423 7.69893 2.97868 6.49901C3.11893 5.70881 3.4275 4.9479 3.90444 4.21622C2.78229 5.44541 1.95471 6.48439 1.42173 7.33311C0.832611 8.24039 0.453893 9.13301 0.285574 10.011C0.117255 10.889 0.215427 11.606 0.580133 12.1621C1.56198 13.8596 3.70805 13.9766 7.01834 12.5133L25.6176 4.43572Z" fill="#1A2530"/>
</svg>
